HIERARCHY
ROOT Hips
{
    OFFSET   0.000000   0.000000   0.000000
    CHANNELS 6 Xposition Yposition Zposition Zrotation Xrotation Yrotation
    JOINT Chest
    {
        OFFSET   0.000000   8.007230   0.000000
        CHANNELS 3 Zrotation Xrotation Yrotation
        JOINT Chest2
        {
            OFFSET   0.000000  22.077100   0.000000
            CHANNELS 3 Zrotation Xrotation Yrotation
            JOINT Neck
            {
                OFFSET   0.000000  23.255100   0.000000
                CHANNELS 3 Zrotation Xrotation Yrotation
                JOINT Head
                {
                    OFFSET   0.000000  14.370100   1.956600
                    CHANNELS 3 Zrotation Xrotation Yrotation
                    End Site
                    {
                        OFFSET   0.000000  19.566000   0.000000
                    }
                }
            }
            JOINT LeftCollar
            {
                OFFSET   3.911900  19.017000  -0.467063
                CHANNELS 3 Zrotation Xrotation Yrotation
                JOINT LeftShoulder
                {
                    OFFSET  10.383700   0.000000   0.000000
                    CHANNELS 3 Zrotation Xrotation Yrotation
                    JOINT LeftElbow
                    {
                        OFFSET  26.662100   0.001193   0.000980
                        CHANNELS 3 Zrotation Xrotation Yrotation
                        JOINT LeftWrist
                        {
                            OFFSET  28.869000  -0.000059  -0.000082
                            CHANNELS 3 Zrotation Xrotation Yrotation
                            JOINT LeftFinger0
                            {
                                OFFSET   2.044650  -2.323450   3.252850
                                CHANNELS 3 Zrotation Xrotation Yrotation
                                JOINT LeftFinger01
                                {
                                    OFFSET   3.088130   0.000000   0.000000
                                    CHANNELS 3 Zrotation Xrotation Yrotation
                                    JOINT LeftFinger02
                                    {
                                        OFFSET   2.639460   0.000000   0.000000
                                        CHANNELS 3 Zrotation Xrotation Yrotation
                                        End Site
                                        {
                                            OFFSET   2.582190   0.000000   0.000000
                                        }
                                    }
                                }
                            }
                            JOINT LeftFinger1
                            {
                                OFFSET   8.364480   0.000000   3.252850
                                CHANNELS 3 Zrotation Xrotation Yrotation
                                JOINT LeftFinger11
                                {
                                    OFFSET   4.646930   0.000000   0.000000
                                    CHANNELS 3 Zrotation Xrotation Yrotation
                                    JOINT LeftFinger12
                                    {
                                        OFFSET   2.323470   0.000000   0.000000
                                        CHANNELS 3 Zrotation Xrotation Yrotation
                                        End Site
                                        {
                                            OFFSET   2.273050   0.000000   0.000000
                                        }
                                    }
                                }
                            }
                            JOINT LeftFinger2
                            {
                                OFFSET   8.364490   0.000016   1.078090
                                CHANNELS 3 Zrotation Xrotation Yrotation
                                JOINT LeftFinger21
                                {
                                    OFFSET   5.111610   0.000000   0.000000
                                    CHANNELS 3 Zrotation Xrotation Yrotation
                                    JOINT LeftFinger22
                                    {
                                        OFFSET   2.788150   0.000016   0.000000
                                        CHANNELS 3 Zrotation Xrotation Yrotation
                                        End Site
                                        {
                                            OFFSET   2.727660   0.000000   0.000000
                                        }
                                    }
                                }
                            }
                            JOINT LeftFinger3
                            {
                                OFFSET   7.899780   0.000015  -1.078090
                                CHANNELS 3 Zrotation Xrotation Yrotation
                                JOINT LeftFinger31
                                {
                                    OFFSET   4.646930   0.000000   0.000000
                                    CHANNELS 3 Zrotation Xrotation Yrotation
                                    JOINT LeftFinger32
                                    {
                                        OFFSET   2.323470   0.000000   0.000000
                                        CHANNELS 3 Zrotation Xrotation Yrotation
                                        End Site
                                        {
                                            OFFSET   2.273050   0.000000   0.000000
                                        }
                                    }
                                }
                            }
                            JOINT LeftFinger4
                            {
                                OFFSET   7.435090   0.000000  -3.252850
                                CHANNELS 3 Zrotation Xrotation Yrotation
                                JOINT LeftFinger41
                                {
                                    OFFSET   3.717550   0.000000   0.000000
                                    CHANNELS 3 Zrotation Xrotation Yrotation
                                    JOINT LeftFinger42
                                    {
                                        OFFSET   1.858770   0.000000   0.000000
                                        CHANNELS 3 Zrotation Xrotation Yrotation
                                        End Site
                                        {
                                            OFFSET   1.818440   0.000000   0.000000
                                        }
                                    }
                                }
                            }
                        }
                    }
                }
            }
            JOINT RightCollar
            {
                OFFSET  -3.911910  19.017000  -0.467062
                CHANNELS 3 Zrotation Xrotation Yrotation
                JOINT RightShoulder
                {
                    OFFSET -10.383700   0.000014   0.000000
                    CHANNELS 3 Zrotation Xrotation Yrotation
                    JOINT RightElbow
                    {
                        OFFSET -26.662100   0.001225   0.001091
                        CHANNELS 3 Zrotation Xrotation Yrotation
                        JOINT RightWrist
                        {
                            OFFSET -28.869000  -0.000020  -0.000085
                            CHANNELS 3 Zrotation Xrotation Yrotation
                            JOINT RightFinger0
                            {
                                OFFSET  -2.044650  -2.323490   3.252850
                                CHANNELS 3 Zrotation Xrotation Yrotation
                                JOINT RightFinger01
                                {
                                    OFFSET  -3.088130   0.000000   0.000000
                                    CHANNELS 3 Zrotation Xrotation Yrotation
                                    JOINT RightFinger02
                                    {
                                        OFFSET  -2.639460   0.000000   0.000000
                                        CHANNELS 3 Zrotation Xrotation Yrotation
                                        End Site
                                        {
                                            OFFSET  -2.582190   0.000000   0.000000
                                        }
                                    }
                                }
                            }
                            JOINT RightFinger1
                            {
                                OFFSET  -8.364480   0.000000   3.252850
                                CHANNELS 3 Zrotation Xrotation Yrotation
                                JOINT RightFinger11
                                {
                                    OFFSET  -4.646930   0.000000   0.000000
                                    CHANNELS 3 Zrotation Xrotation Yrotation
                                    JOINT RightFinger12
                                    {
                                        OFFSET  -2.323470   0.000000   0.000000
                                        CHANNELS 3 Zrotation Xrotation Yrotation
                                        End Site
                                        {
                                            OFFSET  -2.273050   0.000000   0.000000
                                        }
                                    }
                                }
                            }
                            JOINT RightFinger2
                            {
                                OFFSET  -8.364480   0.000000   1.078090
                                CHANNELS 3 Zrotation Xrotation Yrotation
                                JOINT RightFinger21
                                {
                                    OFFSET  -5.111620   0.000000   0.000000
                                    CHANNELS 3 Zrotation Xrotation Yrotation
                                    JOINT RightFinger22
                                    {
                                        OFFSET  -2.788160   0.000000   0.000000
                                        CHANNELS 3 Zrotation Xrotation Yrotation
                                        End Site
                                        {
                                            OFFSET  -2.727660   0.000000   0.000000
                                        }
                                    }
                                }
                            }
                            JOINT RightFinger3
                            {
                                OFFSET  -7.899780   0.000000  -1.078090
                                CHANNELS 3 Zrotation Xrotation Yrotation
                                JOINT RightFinger31
                                {
                                    OFFSET  -4.646930   0.000000   0.000000
                                    CHANNELS 3 Zrotation Xrotation Yrotation
                                    JOINT RightFinger32
                                    {
                                        OFFSET  -2.323470   0.000000   0.000000
                                        CHANNELS 3 Zrotation Xrotation Yrotation
                                        End Site
                                        {
                                            OFFSET  -2.273050   0.000000   0.000000
                                        }
                                    }
                                }
                            }
                            JOINT RightFinger4
                            {
                                OFFSET  -7.435090   0.000000  -3.252850
                                CHANNELS 3 Zrotation Xrotation Yrotation
                                JOINT RightFinger41
                                {
                                    OFFSET  -3.717550   0.000000   0.000000
                                    CHANNELS 3 Zrotation Xrotation Yrotation
                                    JOINT RightFinger42
                                    {
                                        OFFSET  -1.858760   0.000000   0.000000
                                        CHANNELS 3 Zrotation Xrotation Yrotation
                                        End Site
                                        {
                                            OFFSET  -1.818440   0.000000   0.000000
                                        }
                                    }
                                }
                            }
                        }
                    }
                }
            }
        }
    }
    JOINT LeftHip
    {
        OFFSET   9.783030   0.000000   0.000000
        CHANNELS 3 Zrotation Xrotation Yrotation
        JOINT LeftKnee
        {
            OFFSET   0.000063 -41.789100   0.000608
            CHANNELS 3 Zrotation Xrotation Yrotation
            JOINT LeftAnkle
            {
                OFFSET   0.000048 -41.133200  -0.000184
                CHANNELS 3 Zrotation Xrotation Yrotation
                JOINT LeftToe
                {
                    OFFSET   0.000000  -6.358960  14.674500
                    CHANNELS 3 Zrotation Xrotation Yrotation
                    End Site
                    {
                        OFFSET   0.000000   0.000000   3.913200
                    }
                }
            }
        }
    }
    JOINT RightHip
    {
        OFFSET  -9.783030   0.000000   0.000000
        CHANNELS 3 Zrotation Xrotation Yrotation
        JOINT RightKnee
        {
            OFFSET   0.000071 -41.789100   0.001239
            CHANNELS 3 Zrotation Xrotation Yrotation
            JOINT RightAnkle
            {
                OFFSET   0.000037 -41.133200  -0.000166
                CHANNELS 3 Zrotation Xrotation Yrotation
                JOINT RightToe
                {
                    OFFSET   0.000000  -6.358960  14.674500
                    CHANNELS 3 Zrotation Xrotation Yrotation
                    End Site
                    {
                        OFFSET   0.000000   0.000000   3.913200
                    }
                }
            }
        }
    }
}
MOTION
Frames: 5
Frame Time:   0.016667
  0.014881  89.578500   1.003280  -2.073310  -5.658190  -2.130650   0.321559   2.693400   0.929925   0.600255   5.391630   1.847760   1.595340  -0.108082   0.003684   2.620960  -0.218817  -1.115380  -1.071340  -0.567555   1.433290 -77.264200  15.264400   2.050050  -1.213370  -3.844310 -15.848100  18.352500 -13.106300   8.179060  40.484400  35.094200 -64.743800 -31.661500   0.009432   0.005893 -10.832200   0.006624   0.003404 -33.023600   8.267650 -12.461100 -27.752200  -0.000941  -0.003799 -19.426500  -0.000951  -0.003359 -28.782600   0.738913  -1.328850 -42.356800   0.002661  -0.010967 -28.209700   0.000979  -0.009038 -28.770500   0.738698  -1.328970 -41.678100  -0.009111   0.000148 -27.750600   0.000585  -0.001698 -36.596500  -0.154228   0.205425 -54.895200   0.004032   0.001463 -36.560200   0.001554  -0.007346   6.720260   1.533880  -0.065598  72.200600   9.079860  -5.411460  -1.991870  -5.222980  12.049900  -9.773960  -5.238120  -0.710734 -36.245700  25.900200  57.036300  31.330700   0.007527  -0.010056  10.665300  -0.002492  -0.006124  30.595200   7.370030  12.240400  25.679800  -0.003756  -0.001968  17.975900  -0.002769  -0.006901  28.420500   2.254870   4.142650  36.132800  -0.005523  -0.003355  24.064500  -0.004276  -0.006471  27.832300   1.164000   2.202740  31.146900  -0.003281  -0.002169  20.743800  -0.002555  -0.004475  37.398500  -0.348572  -0.456288  56.099700  -0.003067  -0.006119  37.362400   0.000000  -0.004286   2.619100   7.969770   3.410170   1.347020   0.263775   9.845680  -3.399590  -2.966000  -0.093448  -0.000000   0.000000   0.000000   1.521210   7.171790  -4.708770   0.324055   1.255730  -7.138390  -0.554561  -4.081690  -0.059004  -0.000000   0.000000  -0.000000
  0.021019  89.578500   1.022530  -2.071830  -5.657950  -2.115820   0.321678   2.693350   0.933078   0.600413   5.391560   1.854060   1.583410  -0.092288   0.003697   2.601370  -0.186928  -1.100670  -1.071350  -0.567507   1.433630 -77.263000  15.262600   2.044400  -1.210390  -3.843930 -15.857500  18.364700 -13.110400   8.179480  40.487600  35.100400 -64.738000 -31.661900   0.009426   0.005885 -10.832200   0.006616   0.003401 -33.024200   8.267940 -12.461100 -27.755100  -0.000948  -0.003775 -19.428600  -0.000946  -0.003342 -28.782600   0.739474  -1.333760 -42.357200   0.002692  -0.010968 -28.209900   0.000991  -0.009039 -28.770500   0.739259  -1.333880 -41.678200  -0.009129   0.000254 -27.752600   0.000592  -0.001654 -36.594500  -0.154217   0.205341 -54.892200   0.004071   0.001479 -36.558300   0.001561  -0.007361   6.720270   1.540810  -0.065586  72.195800   9.073170  -5.430560  -1.982900  -5.230800  12.043100  -9.772540  -5.266490  -0.697816 -36.247400  25.903000  57.048500  31.330700   0.007527  -0.010054  10.665300  -0.002491  -0.006131  30.598300   7.369430  12.238300  25.682500  -0.003756  -0.001958  17.977800  -0.002766  -0.006901  28.420500   2.253460   4.146480  36.145000  -0.005522  -0.003352  24.072600  -0.004273  -0.006472  27.831900   1.163770   2.202300  31.147400  -0.003279  -0.002167  20.744100  -0.002553  -0.004474  37.399000  -0.348603  -0.456325  56.100400  -0.003064  -0.006119  37.362900   0.000000  -0.004287   2.612480   7.988310   3.410320   1.346980   0.238558   9.846260  -3.397670  -2.965270  -0.107654  -0.000000   0.000000  -0.000000   1.508780   7.201080  -4.715140   0.335847   1.231220  -7.153040  -0.556022  -4.086230  -0.050772   0.000000   0.000000  -0.000000
  0.029723  89.578500   1.054190  -2.070360  -5.657710  -2.100980   0.321664   2.693300   0.939043   0.600041   5.391480   1.866010   1.564480  -0.067951   0.003709   2.570240  -0.137734  -1.069460  -1.071380  -0.567458   1.433970 -77.260300  15.261000   2.032920  -1.204060  -3.843430 -15.873500  18.384100 -13.119500   8.180070  40.493800  35.107800 -64.733900 -31.664300   0.009403   0.005856 -10.832200   0.006594   0.003389 -33.028800   8.268240 -12.461100 -27.764100  -0.000966  -0.003718 -19.434900  -0.000931  -0.003303 -28.782500   0.740035  -1.338670 -42.359900   0.002757  -0.010968 -28.211700   0.001022  -0.009042 -28.770400   0.739821  -1.338790 -41.679300  -0.009169   0.000360 -27.758400   0.000610  -0.001554 -36.592600  -0.154194   0.205257 -54.889300   0.004158   0.001514 -36.556300   0.001577  -0.007395   6.720280   1.550710  -0.065576  72.186600   9.063670  -5.458250  -1.967150  -5.239600  12.036300  -9.771280  -5.309430  -0.684913 -36.248900  25.913500  57.066900  31.330700   0.007526  -0.010052  10.665300  -0.002490  -0.006140  30.603100   7.365120  12.228800  25.685200  -0.003755  -0.001936  17.979700  -0.002760  -0.006901  28.420600   2.250350   4.150300  36.157200  -0.005516  -0.003345  24.080700  -0.004267  -0.006476  27.831500   1.162150   2.199210  31.147800  -0.003274  -0.002162  20.744500  -0.002548  -0.004470  37.399500  -0.348633  -0.456363  56.101200  -0.003054  -0.006119  37.363400   0.000000  -0.004289   2.603550   8.015360   3.410460   1.346930   0.213340   9.846850  -3.395750  -2.964540  -0.121860   0.000000   0.000000   0.000000   1.489360   7.247930  -4.728750   0.355494   1.195270  -7.169000  -0.558468  -4.095860  -0.034129   0.000000   0.000000   0.000000
  0.033851  89.578500   1.078640  -2.069380  -5.659150  -2.101630   0.320030   2.696740   0.945149   0.596351   5.398360   1.878320   1.551030  -0.049573   0.003695   2.548170  -0.101335  -1.028810  -1.071340  -0.571746   1.432580 -77.256000  15.265400   2.020110  -1.193350  -3.843240 -15.886300  18.400200 -13.133100   8.179550  40.485200  35.110900 -64.750000 -31.680100   0.009359   0.005784 -10.839500   0.006558   0.003360 -33.050700   8.266590 -12.454800 -27.782700  -0.000996  -0.003638 -19.448000  -0.000907  -0.003247 -28.782700   0.736041  -1.334830 -42.393800   0.002846  -0.010966 -28.234200   0.001071  -0.009050 -28.770600   0.735827  -1.334950 -41.695700  -0.009227  -0.000357 -27.771000   0.000641  -0.001408 -36.601500  -0.154161   0.205282 -54.902800   0.004282   0.001563 -36.565300   0.001604  -0.007442   6.720300   1.555040  -0.066858  72.176900   9.059130  -5.472260  -1.951310  -5.240460  12.044300  -9.775770  -5.333810  -0.685200 -36.256800  25.938000  57.085600  31.339800   0.007526  -0.010056  10.669900  -0.002484  -0.006142  30.601000   7.348080  12.205900  25.680700  -0.003750  -0.001907  17.976500  -0.002757  -0.006899  28.421200   2.245680   4.144360  36.141200  -0.005507  -0.003334  24.070100  -0.004260  -0.006484  27.833700   1.154000   2.184110  31.128100  -0.003265  -0.002153  20.731300  -0.002541  -0.004464  37.387000  -0.348324  -0.455985  56.082500  -0.003038  -0.006119  37.351000   0.000000  -0.004292   2.600950   8.024150   3.410220   1.347730   0.229014   9.846430  -3.396960  -2.983470  -0.121783  -0.000000   0.000000   0.000000   1.475740   7.281440  -4.747730   0.372257   1.176650  -7.170530  -0.560951  -4.108490  -0.013261  -0.000000   0.000000  -0.000000
  0.035412  89.578500   1.102600  -2.068790  -5.663600  -2.105090   0.317456   2.704870   0.952432   0.590780   5.414600   1.893000   1.539270  -0.039739   0.003676   2.528770  -0.080378  -0.983461  -1.071280  -0.578122   1.427530 -77.245400  15.277100   2.003520  -1.186640  -3.843300 -15.901200  18.409400 -13.146600   8.177690  40.469500  35.118700 -64.773100 -31.702600   0.009306   0.005732 -10.851300   0.006514   0.003324 -33.076900   8.262860 -12.443100 -27.801200  -0.001033  -0.003545 -19.460800  -0.000875  -0.003184 -28.782900   0.728786  -1.326020 -42.437300   0.002939  -0.010964 -28.263200   0.001134  -0.009060 -28.770900   0.728572  -1.326140 -41.712200  -0.009293  -0.001762 -27.780400   0.000681  -0.001245 -36.613900  -0.154125   0.205425 -54.921300   0.004414   0.001615 -36.577600   0.001638  -0.007495   6.720390   1.557670  -0.070543  72.166600   9.057370  -5.480170  -1.935020  -5.240510  12.056000  -9.783400  -5.354720  -0.687041 -36.249700  25.954500  57.098300  31.357000   0.007527  -0.010061  10.678500  -0.002475  -0.006142  30.598500   7.333950  12.181000  25.676300  -0.003741  -0.001868  17.973400  -0.002754  -0.006897  28.421800   2.241330   4.135790  36.125200  -0.005494  -0.003319  24.059400  -0.004250  -0.006493  27.837800   1.142680   2.162950  31.108300  -0.003254  -0.002142  20.718200  -0.002532  -0.004456  37.374600  -0.348014  -0.455608  56.063900  -0.003017  -0.006118  37.338600   0.000000  -0.004296   2.599870   8.037740   3.410080   1.348540   0.244687   9.846010  -3.399550  -3.002400  -0.121230   0.000000   0.000000  -0.000000   1.465270   7.312240  -4.766660   0.387481   1.164060  -7.170720  -0.562435  -4.122430   0.008283   0.000000   0.000000  -0.000000
